<svg width="18" height="18" viewBox="0 0 18 18" fill="none" xmlns="http://www.w3.org/2000/svg">
<path d="M1.90971 4.57832C1.90974 4.57822 1.65506 3.85992 1.65506 3.85992C1.55128 3.56662 1.22966 3.41391 0.937179 3.51773C0.644426 3.62152 0.491167 3.94287 0.594988 4.23562L1.28294 6.17615C1.37299 6.42908 1.64051 6.58062 1.90253 6.54358C1.90253 6.54361 4.03916 6.19923 4.03916 6.19923C4.34592 6.14979 4.55435 5.86088 4.50491 5.5544C4.45552 5.2479 4.16547 5.03755 3.86009 5.0886L2.80962 5.25779C4.11027 3.0871 6.45729 1.73208 9.04323 1.73208C13.0507 1.73208 16.3111 4.99251 16.3111 8.99994C16.3111 9.31082 16.5627 9.56237 16.8735 9.56237C17.1844 9.56237 17.436 9.31082 17.436 8.99994C17.3647 0.560726 6.36889 -2.53172 1.90971 4.57832Z" fill="black"/>
<path d="M16.7153 11.8237C16.6262 11.5759 16.357 11.4165 16.0957 11.4563L13.9596 11.8007C13.6531 11.8501 13.4444 12.139 13.4939 12.4455C13.5433 12.752 13.8306 12.9613 14.1387 12.9113L15.1883 12.7421C13.8882 14.9128 11.5412 16.2678 8.95527 16.2678C4.94783 16.2678 1.6874 13.0074 1.6874 8.99997C1.6874 8.68906 1.43557 8.4375 1.12497 8.4375C0.814359 8.4375 0.5625 8.68906 0.5625 8.99997C0.633499 17.4391 11.63 20.5316 16.0887 13.4216C16.2461 13.788 16.3313 14.5417 16.8735 14.5145C17.2521 14.5205 17.5385 14.1215 17.4035 13.7643L16.7153 11.8237Z" fill="black"/>
<path d="M8.99883 4.79199C7.68088 4.79199 6.60845 5.86416 6.60845 7.18186V7.74484H5.87106C5.56042 7.74484 5.30859 7.99639 5.30859 8.30731V12.6454C5.30859 12.9563 5.56042 13.2078 5.87106 13.2078H12.1269C12.4378 13.2078 12.6893 12.9563 12.6893 12.6454V8.30731C12.6893 7.9964 12.4378 7.74484 12.1269 7.74484H11.3892V7.18186C11.3892 5.86415 10.317 4.79199 8.99883 4.79199ZM7.73331 7.18186C7.73331 6.4843 8.30099 5.91689 8.99883 5.91689C9.69639 5.91689 10.2644 6.4843 10.2644 7.18186V7.74484H7.73331V7.18186ZM11.5644 8.86973V12.0829H6.43349V8.86973H11.5644Z" fill="black"/>
</svg>
