<svg width="24" height="24" viewBox="0 0 24 24" fill="none" xmlns="http://www.w3.org/2000/svg">
<g clip-path="url(#clip0_2851_637)">
<mask id="mask0_2851_637" style="mask-type:luminance" maskUnits="userSpaceOnUse" x="0" y="0" width="24" height="24">
<path d="M24 0H0V24H24V0Z" fill="white"/>
</mask>
<g mask="url(#mask0_2851_637)">
<path d="M12 4.84766C7.41454 4.84766 3.25621 7.3564 0.187788 11.4313C-0.062596 11.7651 -0.062596 12.2315 0.187788 12.5654C3.25621 16.6451 7.41454 19.1539 12 19.1539C16.5855 19.1539 20.7438 16.6451 23.8122 12.5703C24.0626 12.2364 24.0626 11.77 23.8122 11.4362C20.7438 7.3564 16.5855 4.84766 12 4.84766ZM12.3289 17.0379C9.28506 17.2294 6.7714 14.7206 6.96287 11.6718C7.11998 9.15818 9.15741 7.12075 11.6711 6.96364C14.7149 6.77217 17.2286 9.28092 17.0371 12.3297C16.8751 14.8384 14.8377 16.8759 12.3289 17.0379ZM12.1767 14.7108C10.537 14.8139 9.18196 13.4638 9.28997 11.824C9.37343 10.469 10.4732 9.3742 11.8282 9.28583C13.4679 9.18273 14.823 10.5328 14.7149 12.1726C14.6266 13.5325 13.5268 14.6273 12.1767 14.7108Z" fill="url(#paint0_linear_2851_637)"/>
</g>
</g>
<defs>
<linearGradient id="paint0_linear_2851_637" x1="1.60419e-08" y1="13.3546" x2="23.3283" y2="16.156" gradientUnits="userSpaceOnUse">
<stop stop-color="#12134D"/>
<stop offset="0.511402" stop-color="#10053C"/>
<stop offset="1" stop-color="#12134D"/>
</linearGradient>
<clipPath id="clip0_2851_637">
<rect width="24" height="24" fill="white"/>
</clipPath>
</defs>
</svg>
