<svg width="16" height="16" viewBox="0 0 16 16" fill="none" xmlns="http://www.w3.org/2000/svg">
<path d="M10 2.5H3C2.17157 2.5 1.5 3.17157 1.5 4V14C1.5 14.8284 2.17157 15.5 3 15.5H10C10.8284 15.5 11.5 14.8284 11.5 14V4C11.5 3.17157 10.8284 2.5 10 2.5Z" fill="white"/>
<path d="M14.4998 2V12C14.4987 12.3975 14.3402 12.7783 14.0592 13.0593C13.7781 13.3404 13.3973 13.4988 12.9998 13.5H12.4998V4C12.4998 3.33696 12.2365 2.70107 11.7676 2.23223C11.2988 1.76339 10.6629 1.5 9.99984 1.5H4.58984C4.693 1.20823 4.88388 0.955499 5.13631 0.776469C5.38874 0.597439 5.69037 0.50087 5.99984 0.5H12.9998C13.3973 0.501187 13.7781 0.659603 14.0592 0.940651C14.3402 1.2217 14.4987 1.60254 14.4998 2Z" fill="white"/>
</svg>
