<svg width="18" height="18" viewBox="0 0 18 18" fill="none" xmlns="http://www.w3.org/2000/svg">
<path d="M5.875 7.75H3.375C2.71196 7.75 2.07607 7.48661 1.60723 7.01777C1.13839 6.54893 0.875 5.91304 0.875 5.25C0.875 4.58696 1.13839 3.95107 1.60723 3.48223C2.07607 3.01339 2.71196 2.75 3.375 2.75H5.875C6.04076 2.75 6.19973 2.81585 6.31694 2.93306C6.43415 3.05027 6.5 3.20924 6.5 3.375V7.125C6.5 7.29076 6.43415 7.44973 6.31694 7.56694C6.19973 7.68415 6.04076 7.75 5.875 7.75ZM3.375 4C3.04348 4 2.72554 4.1317 2.49112 4.36612C2.2567 4.60054 2.125 4.91848 2.125 5.25C2.125 5.58152 2.2567 5.89946 2.49112 6.13388C2.72554 6.3683 3.04348 6.5 3.375 6.5H5.25V4H3.375Z" fill="white"/>
<path d="M15.25 17.75H3.375C2.71196 17.75 2.07607 17.4866 1.60723 17.0178C1.13839 16.5489 0.875 15.913 0.875 15.25V5.25C0.875 5.08424 0.940848 4.92527 1.05806 4.80806C1.17527 4.69085 1.33424 4.625 1.5 4.625C1.66576 4.625 1.82473 4.69085 1.94194 4.80806C2.05915 4.92527 2.125 5.08424 2.125 5.25C2.125 5.58152 2.2567 5.89946 2.49112 6.13388C2.72554 6.3683 3.04348 6.5 3.375 6.5H15.25C15.7473 6.5 16.2242 6.69754 16.5758 7.04917C16.9275 7.40081 17.125 7.87772 17.125 8.375V15.875C17.125 16.3723 16.9275 16.8492 16.5758 17.2008C16.2242 17.5525 15.7473 17.75 15.25 17.75ZM2.125 7.41438V15.25C2.125 15.5815 2.2567 15.8995 2.49112 16.1339C2.72554 16.3683 3.04348 16.5 3.375 16.5H15.25C15.4158 16.5 15.5747 16.4342 15.6919 16.3169C15.8092 16.1997 15.875 16.0408 15.875 15.875V8.375C15.875 8.20924 15.8092 8.05027 15.6919 7.93306C15.5747 7.81585 15.4158 7.75 15.25 7.75H3.375C2.93598 7.75068 2.50464 7.63487 2.125 7.41438Z" fill="white"/>
<path d="M14.625 7.75H5.875C5.70924 7.75 5.55027 7.68415 5.43306 7.56694C5.31585 7.44973 5.25 7.29076 5.25 7.125V1.5C5.25 1.16848 5.3817 0.850537 5.61612 0.616116C5.85054 0.381696 6.16848 0.25 6.5 0.25H14C14.3315 0.25 14.6495 0.381696 14.8839 0.616116C15.1183 0.850537 15.25 1.16848 15.25 1.5V7.125C15.25 7.29076 15.1842 7.44973 15.0669 7.56694C14.9497 7.68415 14.7908 7.75 14.625 7.75ZM6.5 6.5H14V1.5H6.5V6.5Z" fill="white"/>
<path d="M13.375 13.375C14.0654 13.375 14.625 12.8154 14.625 12.125C14.625 11.4346 14.0654 10.875 13.375 10.875C12.6846 10.875 12.125 11.4346 12.125 12.125C12.125 12.8154 12.6846 13.375 13.375 13.375Z" fill="white"/>
<path d="M12.0125 7.75C11.911 7.74994 11.8111 7.72516 11.7213 7.67779C11.6315 7.63042 11.5546 7.56189 11.4972 7.47813C11.4399 7.39437 11.4038 7.2979 11.3921 7.19706C11.3804 7.09622 11.3934 6.99405 11.43 6.89937C11.4778 6.7717 11.5015 6.6363 11.5 6.5C11.5 6.16848 11.3683 5.85054 11.1339 5.61612C10.8995 5.3817 10.5816 5.25 10.25 5.25C9.91852 5.25 9.60058 5.3817 9.36616 5.61612C9.13174 5.85054 9.00004 6.16848 9.00004 6.5C8.99859 6.6363 9.02232 6.7717 9.07004 6.89937C9.10074 6.97612 9.1159 7.0582 9.11466 7.14085C9.11342 7.2235 9.09579 7.30508 9.06281 7.38087C9.02982 7.45666 8.98213 7.52516 8.92249 7.58239C8.86285 7.63963 8.79245 7.68446 8.71537 7.71431C8.63828 7.74415 8.55605 7.7584 8.47342 7.75624C8.39078 7.75409 8.3094 7.73556 8.23398 7.70174C8.15856 7.66791 8.0906 7.61946 8.03403 7.5592C7.97746 7.49893 7.9334 7.42804 7.90442 7.35063C7.80064 7.07911 7.74829 6.79066 7.75004 6.5C7.75004 5.83696 8.01343 5.20107 8.48228 4.73223C8.95112 4.26339 9.587 4 10.25 4C10.9131 4 11.549 4.26339 12.0178 4.73223C12.4866 5.20107 12.75 5.83696 12.75 6.5C12.7518 6.79066 12.6994 7.07911 12.5957 7.35063C12.5501 7.46827 12.4701 7.56937 12.366 7.64065C12.2619 7.71194 12.1387 7.75005 12.0125 7.75Z" fill="white"/>
</svg>
