<svg width="36" height="36" viewBox="0 0 36 36" fill="none" xmlns="http://www.w3.org/2000/svg">
<path d="M18 35.5781C27.7081 35.5781 35.5781 27.7081 35.5781 18C35.5781 8.29187 27.7081 0.421875 18 0.421875C8.29187 0.421875 0.421875 8.29187 0.421875 18C0.421875 27.7081 8.29187 35.5781 18 35.5781Z" fill="#5C6BC0"/>
<path opacity="0.49" d="M35.5754 18.1955L28.4457 11.0658C25.3297 8.82986 22.4262 8.73691 21.8715 8.72531L21.5174 9.06133L22.6776 10.2215C21.1439 9.8601 19.5753 9.66768 17.9997 9.64767C17.0843 9.6591 16.1705 9.72887 15.264 9.85657L15.2604 9.85713L14.1284 8.7251C13.5737 8.7367 10.6701 8.82937 7.55414 11.0656C7.55414 11.0656 4.07227 16.9052 4.07227 24.0772L15.4196 35.3891C16.2739 35.5149 17.1362 35.5781 17.9997 35.5781C27.6424 35.5781 35.4704 27.8134 35.5754 18.1955Z" fill="url(#paint0_linear_53_145)"/>
<path d="M28.4455 11.0655C25.3294 8.82959 22.4259 8.73664 21.8712 8.72504L21.5171 9.06106C25.4947 10.1733 27.4186 11.9113 27.4186 11.9113C24.0045 10.2624 20.7871 9.68255 17.9998 9.64768C15.2125 9.68283 11.9951 10.2624 8.58098 11.9113C8.58098 11.9113 10.5049 10.1733 14.4825 9.06106L14.1284 8.72504C13.5737 8.73664 10.6701 8.82931 7.55414 11.0655C7.55414 11.0655 4.07227 16.9051 4.07227 24.0771C4.19025 23.9381 6.2322 27.1591 11.4964 27.275C11.4964 27.275 12.3816 26.2902 13.0189 25.4212C9.95011 24.5522 8.79347 22.8143 8.79347 22.8143C11.9838 24.787 14.9637 25.546 17.9998 25.4474C21.0358 25.5458 24.0157 24.787 27.2061 22.8143C27.2061 22.8143 26.0494 24.5522 22.9803 25.4212C23.6177 26.2902 24.5029 27.275 24.5029 27.275C29.767 27.1591 31.8089 23.9381 31.9269 24.0771C31.9273 16.9051 28.4455 11.0655 28.4455 11.0655ZM13.715 21.8294C12.3694 21.8294 11.2836 20.717 11.2836 19.3498C11.2836 17.9826 12.3694 16.8703 13.715 16.8703V16.8819C15.0488 16.8819 16.1464 17.9943 16.1464 19.3614C16.1467 20.717 15.0607 21.8294 13.7153 21.8294H13.715ZM22.284 21.8294C20.9384 21.8294 19.8526 20.717 19.8526 19.3614C19.8526 17.9943 20.9502 16.8819 22.284 16.8819V16.8703C23.6295 16.8703 24.7154 17.9827 24.7154 19.3498C24.7154 20.717 23.6298 21.8294 22.2843 21.8294H22.284Z" fill="white"/>
<defs>
<linearGradient id="paint0_linear_53_145" x1="8.65348" y1="9.96604" x2="29.7727" y2="31.0853" gradientUnits="userSpaceOnUse">
<stop stop-color="#1D1D1B"/>
<stop offset="0.369" stop-color="#1D1D1B" stop-opacity="0.856"/>
<stop offset="0.75" stop-color="#1D1D1B" stop-opacity="0.429"/>
<stop offset="1" stop-color="#1D1D1B" stop-opacity="0"/>
</linearGradient>
</defs>
</svg>
