<svg width="12" height="11" viewBox="0 0 12 11" fill="none" xmlns="http://www.w3.org/2000/svg">
<path d="M11.7447 8.70869C11.5152 8.82618 11.2327 8.73634 11.1142 8.50562H11.1142C10.3955 7.10498 8.48719 5.09697 5.99998 5.09697C3.76938 5.09697 1.78711 6.74913 0.885751 8.50565C0.767181 8.7355 0.484806 8.82623 0.254767 8.70806C0.0247515 8.58988 -0.0662798 8.30807 0.0515405 8.07787C1.08715 6.05566 3.36455 4.15947 5.99998 4.15947C9.0056 4.15947 11.1582 6.53491 11.9484 8.07787C12.0664 8.3083 11.9752 8.59075 11.7447 8.70869ZM0.182134 3.67431L1.22613 4.61613C1.41949 4.79057 1.71579 4.77311 1.88817 4.58205C2.06156 4.38981 2.04633 4.09342 1.8541 3.92001L0.810095 2.9782C0.617931 2.80483 0.321541 2.82002 0.148056 3.01227C-0.0253344 3.20451 -0.0101001 3.5009 0.182134 3.67431ZM10.7738 4.61613L11.8178 3.67431C12.01 3.5009 12.0252 3.20451 11.8519 3.01227C11.6784 2.82006 11.382 2.80478 11.1898 2.9782L10.1458 3.92001C9.9536 4.0934 9.93837 4.38981 10.1118 4.58205C10.2843 4.77332 10.5807 4.79036 10.7738 4.61613ZM5.99995 2.74736C6.25885 2.74736 6.4687 2.53748 6.4687 2.27861V0.871094C6.4687 0.612227 6.25885 0.402344 5.99995 0.402344C5.74106 0.402344 5.5312 0.612227 5.5312 0.871094V2.27861C5.53123 2.5375 5.74109 2.74736 5.99995 2.74736ZM8.30269 8.29143C8.30269 9.56308 7.26968 10.5977 5.99998 10.5977C4.73027 10.5977 3.69727 9.56308 3.69727 8.29143C3.69727 7.01978 4.73027 5.9852 5.99998 5.9852C7.26968 5.9852 8.30269 7.01978 8.30269 8.29143ZM7.36521 8.29143C7.36521 7.53672 6.75279 6.9227 6 6.9227C5.24721 6.9227 4.63477 7.53672 4.63477 8.29143C4.63477 9.04614 5.24719 9.66016 5.99998 9.66016C6.75277 9.66016 7.36521 9.04614 7.36521 8.29143Z" fill="#FA544D"/>
</svg>
