<svg width="12" height="11" viewBox="0 0 12 11" fill="none" xmlns="http://www.w3.org/2000/svg">
<path d="M3.90871 1.64466C4.55111 1.65786 5.17684 1.95066 5.62537 2.72786C5.79204 3.01613 6.20804 3.01613 6.37537 2.72786C6.82404 1.95079 7.44977 1.65799 8.09204 1.64466C8.73444 1.63066 9.39204 1.93359 9.79764 2.42106C10.5803 3.36279 10.6803 5.00853 9.53444 6.16146L6.00031 9.20653L2.46564 6.16146C1.32044 5.00866 1.41977 3.36279 2.20311 2.42106C2.60871 1.93359 3.26631 1.63066 3.90871 1.64466ZM3.92737 0.777461C3.00937 0.757861 2.11844 1.16773 1.53644 1.86693C0.46004 3.16146 0.395373 5.31413 1.85377 6.77733C1.86151 6.78519 1.86977 6.79266 1.87817 6.80026L5.71777 10.1071C5.88031 10.2467 6.12057 10.2467 6.28297 10.1071L10.1232 6.80026C10.1316 6.79266 10.1392 6.78519 10.147 6.77733C11.6054 5.31399 11.5399 3.16146 10.4636 1.86693C9.88244 1.16759 8.99071 0.757727 8.07324 0.777461C7.31217 0.793194 6.57817 1.21613 6.00031 1.90853C5.42257 1.21613 4.68857 0.793194 3.92737 0.777461Z" fill="#FA544D"/>
</svg>
