<svg width="36" height="36" viewBox="0 0 36 36" fill="none" xmlns="http://www.w3.org/2000/svg">
<path d="M36 18C36 8.05888 27.9411 0 18 0C8.05888 0 0 8.05888 0 18C0 27.9411 8.05888 36 18 36C27.9411 36 36 27.9411 36 18Z" fill="url(#paint0_linear_53_150)"/>
<path opacity="0.1" d="M31.5472 6.15789C28.923 10.9753 25.2116 15.9442 20.5743 20.5816C15.9369 25.2189 10.968 28.9232 6.15769 31.5474C5.85611 31.2853 5.56322 31.0121 5.27901 30.7279C3.56109 29.0673 2.19096 27.0814 1.24852 24.8858C0.30607 22.6902 -0.189834 20.329 -0.210278 17.9398C-0.230723 15.5506 0.224701 13.1812 1.12944 10.9698C2.03417 8.75847 3.37011 6.74934 5.05936 5.05962C6.74861 3.3699 8.75736 2.0334 10.9685 1.12804C13.1796 0.222691 15.5488 -0.233394 17.9381 -0.213617C20.3273 -0.193839 22.6886 0.301405 24.8845 1.24324C27.0803 2.18507 29.0666 3.55465 30.7277 5.2721C31.0119 5.55631 31.2851 5.85157 31.5472 6.15789Z" fill="white"/>
<path d="M22.2622 8.52631H13.7359C12.354 8.52631 11.0287 9.07527 10.0515 10.0524C9.07435 11.0296 8.52539 12.3549 8.52539 13.7368V22.2631C8.52539 23.6451 9.07435 24.9704 10.0515 25.9475C11.0287 26.9247 12.354 27.4737 13.7359 27.4737H22.2622C23.6442 27.4737 24.9695 26.9247 25.9466 25.9475C26.9238 24.9704 27.4728 23.6451 27.4728 22.2631V13.7368C27.4728 12.3549 26.9238 11.0296 25.9466 10.0524C24.9695 9.07527 23.6442 8.52631 22.2622 8.52631ZM25.8149 21.5147C25.8149 22.6554 25.3617 23.7494 24.5551 24.556C23.7485 25.3626 22.6545 25.8158 21.5138 25.8158H14.4843C13.3436 25.8158 12.2496 25.3626 11.443 24.556C10.6364 23.7494 10.1833 22.6554 10.1833 21.5147V14.4853C10.1833 13.3445 10.6364 12.2506 11.443 11.4439C12.2496 10.6373 13.3436 10.1842 14.4843 10.1842H21.5138C22.6545 10.1842 23.7485 10.6373 24.5551 11.4439C25.3617 12.2506 25.8149 13.3445 25.8149 14.4853V21.5147Z" fill="white"/>
<path d="M21.4544 14.58L21.4094 14.535L21.3715 14.4971C20.476 13.6047 19.2631 13.1039 17.9988 13.1045C17.3604 13.1088 16.7291 13.2389 16.141 13.4873C15.5528 13.7357 15.0194 14.0976 14.5711 14.5522C14.1229 15.0068 13.7686 15.5453 13.5285 16.1369C13.2885 16.7285 13.1673 17.3616 13.172 18C13.171 19.2957 13.6818 20.5393 14.5931 21.4603C15.0394 21.9121 15.5713 22.2704 16.1577 22.5144C16.7441 22.7584 17.3732 22.8831 18.0083 22.8813C18.961 22.8614 19.8873 22.5646 20.6742 22.0272C21.4611 21.4899 22.0746 20.7351 22.4399 19.8551C22.8053 18.975 22.9066 18.0076 22.7316 17.071C22.5566 16.1343 22.1128 15.2688 21.4544 14.58ZM17.9988 21.2116C17.3618 21.2205 16.7365 21.0398 16.2025 20.6924C15.6685 20.3449 15.2498 19.8465 14.9998 19.2605C14.7499 18.6745 14.6798 18.0274 14.7986 17.4015C14.9174 16.7756 15.2196 16.1991 15.667 15.7455C16.1143 15.2918 16.6864 14.9815 17.3106 14.8538C17.9347 14.7262 18.5828 14.7871 19.1722 15.0288C19.7617 15.2705 20.266 15.6821 20.6209 16.2112C20.9758 16.7402 21.1654 17.3629 21.1654 18C21.1685 18.4189 21.0891 18.8342 20.9316 19.2223C20.7741 19.6105 20.5417 19.9637 20.2477 20.262C19.9536 20.5603 19.6036 20.7976 19.2177 20.9606C18.8319 21.1235 18.4177 21.2088 17.9988 21.2116Z" fill="white"/>
<path d="M24.2596 12.8795C24.2608 13.0314 24.2321 13.1822 24.175 13.323C24.1179 13.4639 24.0336 13.5921 23.9269 13.7003C23.8202 13.8086 23.6932 13.8947 23.5532 13.9538C23.4132 14.0129 23.2629 14.0438 23.1109 14.0447C22.9602 14.0447 22.811 14.0147 22.6719 13.9565C22.5329 13.8984 22.4068 13.8133 22.3009 13.706C22.1404 13.5432 22.0313 13.3369 21.987 13.1127C21.9427 12.8884 21.9652 12.6561 22.0517 12.4446C22.1382 12.233 22.2849 12.0514 22.4736 11.9225C22.6623 11.7935 22.8847 11.7227 23.1132 11.7189C23.3807 11.7189 23.6397 11.8128 23.8451 11.9842L23.8688 12.0079C23.907 12.039 23.9419 12.0739 23.973 12.1121L23.999 12.1405C24.1686 12.3494 24.2606 12.6105 24.2596 12.8795Z" fill="white"/>
<defs>
<linearGradient id="paint0_linear_53_150" x1="5.27211" y1="5.27211" x2="30.7279" y2="30.7279" gradientUnits="userSpaceOnUse">
<stop stop-color="#FAE100"/>
<stop offset="0.15" stop-color="#FCB720"/>
<stop offset="0.3" stop-color="#FF7950"/>
<stop offset="0.5" stop-color="#FF1C74"/>
<stop offset="1" stop-color="#6C1CD1"/>
</linearGradient>
</defs>
</svg>
