<svg width="20" height="20" viewBox="0 0 20 20" fill="none" xmlns="http://www.w3.org/2000/svg">
<g clip-path="url(#clip0_1460_1396)">
<path d="M19.3735 9.37496H11.457C11.112 9.37496 10.832 9.09497 10.832 8.74998C10.832 8.40499 11.112 8.125 11.457 8.125H19.3735C19.7185 8.125 19.9985 8.40499 19.9985 8.74998C19.9985 9.09497 19.7185 9.37496 19.3735 9.37496Z" fill="black"/>
<path d="M16.2498 12.5013C16.0898 12.5013 15.9299 12.4404 15.8081 12.318C15.564 12.0737 15.564 11.6779 15.8081 11.4338L18.4914 8.75061L15.8081 6.06728C15.564 5.82315 15.564 5.42735 15.8081 5.18321C16.0524 4.93893 16.4482 4.93893 16.6923 5.18321L19.8172 8.30812C20.0614 8.55225 20.0614 8.94805 19.8172 9.19218L16.6923 12.3171C16.5698 12.4404 16.4099 12.5013 16.2498 12.5013Z" fill="black"/>
<path d="M6.66651 19.9994C6.48814 19.9994 6.31892 19.9743 6.14986 19.9219L1.13491 18.2511C0.452562 18.0127 0 17.3769 0 16.6662V1.66667C0 0.747505 0.747505 0 1.66667 0C1.84488 0 2.0141 0.0250237 2.18331 0.0775122L7.19811 1.7483C7.88061 1.98663 8.33302 2.62245 8.33302 3.33318V18.3327C8.33302 19.2519 7.58567 19.9994 6.66651 19.9994ZM1.66667 1.24996C1.43749 1.24996 1.24996 1.43749 1.24996 1.66667V16.6662C1.24996 16.8437 1.36913 17.0086 1.53911 17.0678L6.53056 18.7311C6.56641 18.7427 6.6131 18.7494 6.66651 18.7494C6.89569 18.7494 7.08306 18.5619 7.08306 18.3327V3.33318C7.08306 3.15572 6.96389 2.99078 6.79392 2.93158L1.80246 1.26827C1.76661 1.25667 1.71992 1.24996 1.66667 1.24996Z" fill="black"/>
<path d="M12.7072 6.66651C12.3622 6.66651 12.0822 6.38652 12.0822 6.04153V2.29165C12.0822 1.71748 11.6149 1.24996 11.0407 1.24996H1.666C1.32101 1.24996 1.04102 0.969971 1.04102 0.62498C1.04102 0.27999 1.32101 0 1.666 0H11.0407C12.3049 0 13.3322 1.02749 13.3322 2.29165V6.04153C13.3322 6.38652 13.0522 6.66651 12.7072 6.66651Z" fill="black"/>
<path d="M11.0423 17.4985H7.70896C7.36397 17.4985 7.08398 17.2186 7.08398 16.8736C7.08398 16.5286 7.36397 16.2486 7.70896 16.2486H11.0423C11.6165 16.2486 12.0838 15.7811 12.0838 15.2069V11.457C12.0838 11.112 12.3638 10.832 12.7088 10.832C13.0538 10.832 13.3338 11.112 13.3338 11.457V15.2069C13.3338 16.471 12.3064 17.4985 11.0423 17.4985Z" fill="black"/>
</g>
<defs>
<clipPath id="clip0_1460_1396">
<rect width="20" height="20" fill="white"/>
</clipPath>
</defs>
</svg>
