<svg width="20" height="20" viewBox="0 0 20 20" fill="none" xmlns="http://www.w3.org/2000/svg">
<path d="M18.241 10.5871C17.755 10.5871 17.2862 10.7911 16.9548 11.1468L16.4834 11.6528C16.4834 11.2431 16.4834 8.47687 16.4834 8.10351C17.1748 8.34824 17.964 8.14293 18.4414 7.54488C19.0484 6.78683 18.9266 5.68125 18.167 5.07457L16.4834 3.72769V0.588237C16.4834 0.264683 16.2211 0.00237792 15.8975 0.00237792H13.5541C13.2305 0.00237792 12.9682 0.264683 12.9682 0.588237V0.915542L12.3082 0.387495C11.662 -0.129185 10.7592 -0.129185 10.1128 0.387612L4.25449 5.07425C3.49414 5.68148 3.37316 6.7873 3.97926 7.54429C4.46863 8.15703 5.26805 8.34203 5.93777 8.10468V10.5218C5.5252 10.6441 5.12848 10.8323 4.76387 11.0866C4.71867 10.1574 3.94863 9.41531 3.00844 9.41531H0.586836C0.263281 9.41531 0.000976562 9.67761 0.000976562 10.0012V19.4141C0.000976562 19.7377 0.263281 20 0.586836 20H3.00844C3.77547 20 4.42891 19.5059 4.66824 18.8195C4.70012 18.8248 4.73266 18.8283 4.76605 18.8283H13.5541C14.8197 18.8283 16.0463 18.2004 16.835 17.1488L19.6477 13.3986C19.8773 13.0925 19.9987 12.728 19.9987 12.3446C19.9986 11.3755 19.2102 10.5871 18.241 10.5871ZM3.5943 18.2424C3.5943 18.5655 3.33148 18.8283 3.00844 18.8283H1.17273V10.5871H3.00848C3.33152 10.5871 3.59434 10.8499 3.59434 11.1729V18.2424H3.5943ZM14.14 1.1741H15.3117V2.79031L14.14 1.85292V1.1741ZM5.71758 6.90441C5.46586 7.10586 5.0973 7.0666 4.89438 6.8125C4.69301 6.56101 4.73156 6.19289 4.98613 5.98953L10.8447 1.30269C11.0602 1.13039 11.3611 1.13046 11.5764 1.30257L17.4355 5.98984C17.6873 6.19093 17.7302 6.55847 17.5263 6.81316C17.325 7.06535 16.9566 7.10695 16.7035 6.90429L11.5766 2.8032C11.4696 2.71761 11.3401 2.6748 11.2106 2.6748C11.0811 2.6748 10.9516 2.71761 10.8446 2.8032C10.6288 2.97585 5.93395 6.73129 5.71758 6.90441ZM12.3823 8.24355H10.0389C9.71531 8.24355 9.45301 8.50586 9.45301 8.82941V11.085C8.75141 10.5964 7.93074 10.3511 7.10953 10.3511V7.29136L11.2106 4.01089L15.3117 7.2914C15.3117 7.35093 15.3117 12.1814 15.3117 12.2305V12.9107L15.2329 12.9953C15.0103 12.2798 14.342 11.7587 13.5541 11.7587H12.9682V8.82941C12.9682 8.50586 12.7059 8.24355 12.3823 8.24355ZM11.7965 9.41531V11.7588H10.6247V9.41531H11.7965ZM18.7103 12.6955L15.8975 16.4457C15.3289 17.2039 14.4529 17.6565 13.5541 17.6565H4.76605V12.6095L5.17434 12.2502C6.27758 11.2794 7.94156 11.2794 9.04473 12.2502C9.25195 12.4326 9.34102 12.5144 9.4266 12.579C9.46395 12.6072 9.83187 12.9305 10.0389 12.9305C10.0949 12.9305 13.5541 12.9305 13.5541 12.9305C13.8771 12.9305 14.1399 13.1933 14.1399 13.5164C14.1399 13.8394 13.8771 14.1022 13.5541 14.1022C13.1792 14.1022 8.96215 14.1022 8.86711 14.1022C8.54356 14.1022 8.28125 14.3645 8.28125 14.6881C8.28125 15.0116 8.54356 15.2739 8.86711 15.2739C9.54664 15.2739 13.4087 15.2739 13.9468 15.2739C14.4328 15.2739 14.9015 15.07 15.2329 14.7143L17.8121 11.9454C17.9243 11.825 18.0766 11.7587 18.241 11.7587C18.5641 11.7587 18.8269 12.0216 18.8269 12.3446C18.8269 12.4725 18.7866 12.5938 18.7103 12.6955Z" fill="white"/>
</svg>
