<svg width="17" height="14" viewBox="0 0 17 14" fill="none" xmlns="http://www.w3.org/2000/svg">
<path d="M3.20039 2.93337C3.64152 2.93337 4.00039 2.57451 4.00039 2.13337C4.00039 1.69224 3.64152 1.33337 3.20039 1.33337C2.75926 1.33337 2.40039 1.69224 2.40039 2.13337C2.40039 2.57451 2.75926 2.93337 3.20039 2.93337ZM3.20039 1.86671C3.34739 1.86671 3.46706 1.98637 3.46706 2.13337C3.46706 2.28037 3.34739 2.40004 3.20039 2.40004C3.05339 2.40004 2.93372 2.28037 2.93372 2.13337C2.93372 1.98637 3.05339 1.86671 3.20039 1.86671Z" fill="white"/>
<path d="M14.8144 1.94349C14.9718 1.94349 15.0995 1.81582 15.0995 1.65842C15.0995 1.50096 14.9718 1.37329 14.8144 1.37329C14.6569 1.37329 14.5293 1.50096 14.5293 1.65842C14.5292 1.81582 14.6569 1.94349 14.8144 1.94349Z" fill="white"/>
<path d="M2.81436 10.1732C2.6569 10.1732 2.5293 10.3009 2.5293 10.4584C2.5293 10.6158 2.65696 10.7434 2.81436 10.7434C2.97176 10.7434 3.0995 10.6158 3.0995 10.4584C3.09943 10.3008 2.97176 10.1732 2.81436 10.1732Z" fill="white"/>
<path d="M9.59974 4.53329V3.99996H10.1331C10.2803 3.99996 10.3997 3.88056 10.3997 3.73329C10.3997 3.58603 10.2803 3.46663 10.1331 3.46663H9.59974V3.19996H10.1331C10.2803 3.19996 10.3997 3.08056 10.3997 2.93329C10.3997 2.78603 10.2803 2.66663 10.1331 2.66663H9.33307C9.18581 2.66663 9.06641 2.78603 9.06641 2.93329V4.53329C9.06641 4.68056 9.18581 4.79996 9.33307 4.79996C9.48034 4.79996 9.59974 4.68056 9.59974 4.53329Z" fill="white"/>
<path d="M8.53353 2.66672C8.38626 2.66672 8.26686 2.78612 8.26686 2.93338V3.35632L7.6554 2.74485C7.579 2.66832 7.46439 2.64565 7.36479 2.68705C7.26519 2.72832 7.2002 2.82558 7.2002 2.93338V4.53338C7.2002 4.68065 7.3196 4.80005 7.46686 4.80005C7.61413 4.80005 7.73353 4.68065 7.73353 4.53338V3.57712L8.26686 4.11045V4.53338C8.26686 4.68065 8.38626 4.80005 8.53353 4.80005C8.6808 4.80005 8.8002 4.68065 8.8002 4.53338V2.93338C8.8002 2.78612 8.6808 2.66672 8.53353 2.66672Z" fill="white"/>
<path d="M10.9337 3.19996H11.2003V4.53329C11.2003 4.68056 11.3197 4.79996 11.467 4.79996C11.6143 4.79996 11.7337 4.68056 11.7337 4.53329V3.19996H12.0003C12.1476 3.19996 12.267 3.08056 12.267 2.93329C12.267 2.78603 12.1476 2.66663 12.0003 2.66663H10.9337C10.7864 2.66663 10.667 2.78603 10.667 2.93329C10.667 3.08056 10.7864 3.19996 10.9337 3.19996Z" fill="white"/>
<path d="M16.3369 13.0761L13.4035 12.2761C13.3635 12.2649 13.3214 12.2635 13.281 12.272L9.32787 13.0626L4.6724 12.3276C4.5918 12.3148 4.53333 12.2462 4.53333 12.1648C4.53333 12.0739 4.60713 12 4.69807 12H10.4C10.434 12 10.4676 11.9935 10.4991 11.981L11.8324 11.4477C11.9691 11.3929 12.0357 11.2378 11.981 11.101C11.9262 10.9644 11.7713 10.8981 11.6343 10.9524L10.3487 11.4667H7.73333V11.4258C7.73333 11.0072 8.0738 10.6667 8.49247 10.6667H10.1333C10.241 10.6667 10.3389 10.6002 10.3802 10.5007C10.3997 10.4544 10.8723 9.3653 12.4955 9.5973C13.2639 9.70703 13.6461 9.8599 14.0156 10.0078C14.5199 10.2095 14.9962 10.4 16.2667 10.4C16.4139 10.4 16.5333 10.2806 16.5333 10.1334C16.5333 9.9861 16.4139 9.8667 16.2667 9.8667C15.0989 9.8667 14.6887 9.70263 14.2137 9.51256C13.8336 9.36063 13.4027 9.18823 12.5711 9.0695C10.9401 8.83656 10.2073 9.74543 9.9738 10.1334H8.4924C7.7798 10.1334 7.19993 10.7132 7.19993 11.4259V11.4668H4.69807C4.3132 11.4668 4 11.7799 4 12.1648C4 12.5103 4.24767 12.8004 4.5892 12.8544L9.2918 13.5969C9.32253 13.6017 9.35453 13.6012 9.38567 13.595L13.3239 12.8074L16.1965 13.5908C16.2201 13.5972 16.2436 13.6004 16.2668 13.6004C16.3841 13.6004 16.4915 13.5224 16.5239 13.4038C16.5626 13.2615 16.4789 13.1149 16.3369 13.0761Z" fill="white"/>
<path d="M7.24153 8.79673L11.9443 8.05427C12.2857 8.0002 12.5333 7.71013 12.5333 7.36467C12.5333 7.00173 12.2539 6.70607 11.8995 6.67313C12.7909 5.97687 13.3333 4.90267 13.3333 3.73333C13.3333 1.67473 11.6586 0 9.6 0C7.5414 0 5.86667 1.67473 5.86667 3.73333C5.86667 4.06707 5.91233 4.39633 5.9986 4.714C5.5802 4.39567 4.93073 4.13147 3.96227 4.2694C3.1306 4.38813 2.69973 4.56053 2.31967 4.71247C1.84467 4.9026 1.4344 5.0666 0.266667 5.0666C0.1194 5.0666 0 5.186 0 5.33327C0 5.48053 0.1194 5.59993 0.266667 5.59993C1.53713 5.59993 2.0134 5.40947 2.51773 5.20773C2.88727 5.0598 3.2694 4.90693 4.0378 4.7972C5.66253 4.5648 6.13373 5.65413 6.1524 5.699C6.193 5.8002 6.29107 5.8666 6.40007 5.8666H8.04093C8.45953 5.8666 8.80007 6.20707 8.80007 6.62573V6.6666H6.18473L4.8992 6.15227C4.7618 6.09773 4.60727 6.16427 4.55247 6.30087C4.4978 6.43773 4.56433 6.5928 4.70107 6.6476L6.0344 7.18093C6.06593 7.19347 6.09953 7.19993 6.13347 7.19993H11.8354C11.9263 7.19993 12.0001 7.27373 12.0001 7.36467C12.0001 7.4462 11.9417 7.51467 11.8612 7.5274L7.2056 8.2624L3.25247 7.4718C3.21147 7.4632 3.16967 7.46487 3.12993 7.47593L0.1966 8.27593C0.0545333 8.31473 -0.0292 8.46133 0.00946668 8.6034C0.0418667 8.722 0.149333 8.8 0.2666 8.8C0.2898 8.8 0.313467 8.79687 0.336933 8.79047L3.20947 8.007L7.14773 8.7946C7.1788 8.80093 7.21053 8.80167 7.24153 8.79673ZM8.04087 5.33333H6.83033C6.5496 4.8484 6.4 4.2982 6.4 3.73333C6.4 1.96887 7.83553 0.533333 9.6 0.533333C11.3645 0.533333 12.8 1.96887 12.8 3.73333C12.8 5.0108 12.0466 6.157 10.8781 6.66667H9.33333V6.6258C9.33333 5.91313 8.75353 5.33333 8.04087 5.33333Z" fill="white"/>
<path d="M14.4005 6.66664H14.6671V6.93331C14.6671 7.08058 14.7865 7.19998 14.9338 7.19998C15.0811 7.19998 15.2005 7.08058 15.2005 6.93331V6.66664H15.4671C15.6144 6.66664 15.7338 6.54724 15.7338 6.39998C15.7338 6.25271 15.6144 6.13331 15.4671 6.13331H15.2005V5.86664C15.2005 5.71938 15.0811 5.59998 14.9338 5.59998C14.7865 5.59998 14.6671 5.71938 14.6671 5.86664V6.13331H14.4005C14.2532 6.13331 14.1338 6.25271 14.1338 6.39998C14.1338 6.54724 14.2532 6.66664 14.4005 6.66664Z" fill="white"/>
</svg>
