<svg width="20" height="20" viewBox="0 0 20 20" fill="none" xmlns="http://www.w3.org/2000/svg">
<path d="M2.69399 16.463L8.02733 19.4803C8.62905 19.8209 9.30871 20 10.0002 20C10.6916 20 11.3713 19.8209 11.973 19.4803L17.3063 16.463C17.9207 16.1147 18.4319 15.6099 18.788 15C19.1441 14.3902 19.3324 13.6969 19.3337 12.9906V7.00963C19.3327 6.30333 19.1446 5.6099 18.7885 4.99995C18.4323 4.39 17.9209 3.88532 17.3063 3.5373L11.973 0.519629C11.3691 0.185212 10.6901 0.00976562 9.99983 0.00976562C9.30952 0.00976562 8.63055 0.185212 8.02666 0.519629L2.69333 3.5373C2.07893 3.88548 1.56775 4.39022 1.21181 5.00015C0.855877 5.61009 0.667892 6.30344 0.666992 7.00963V12.9906C0.668027 13.6969 0.856142 14.3902 1.21219 15.0002C1.56824 15.6101 2.07952 16.1148 2.69399 16.463ZM1.33366 7.00963C1.33452 6.42132 1.49124 5.84374 1.78786 5.33569C2.08449 4.82763 2.51043 4.40724 3.02233 4.1173L8.35566 1.09963C8.85746 0.815805 9.42415 0.666643 10.0007 0.666643C10.5772 0.666643 11.1439 0.815805 11.6457 1.09963L16.979 4.11763C17.4908 4.40758 17.9166 4.82794 18.2131 5.33594C18.5096 5.84394 18.6662 6.42143 18.667 7.00963V12.9906C18.6661 13.5788 18.5094 14.1563 18.2128 14.6643C17.9162 15.1723 17.4904 15.5926 16.9787 15.8826L11.6453 18.9003C11.142 19.1789 10.5761 19.325 10.0008 19.325C9.42553 19.325 8.85967 19.1789 8.35633 18.9003L3.02299 15.8826C2.511 15.5928 2.08494 15.1725 1.78819 14.6645C1.49144 14.1565 1.33461 13.579 1.33366 12.9906V7.00963Z" fill="white"/>
<path d="M3.51498 15.0123L8.84832 18.0299C9.20011 18.2277 9.5969 18.3316 10.0005 18.3316C10.4041 18.3316 10.8009 18.2277 11.1527 18.0299L16.486 15.0123C16.844 14.8097 17.1419 14.516 17.3494 14.1608C17.5569 13.8057 17.6666 13.4019 17.6673 12.9906V7.00961C17.6667 6.59824 17.557 6.19439 17.3495 5.8392C17.142 5.48401 16.844 5.19017 16.486 4.98761L11.1527 1.96994C10.8009 1.77212 10.4041 1.66821 10.0005 1.66821C9.5969 1.66821 9.2001 1.77212 8.84832 1.96994L3.51498 4.98761C3.15707 5.19029 2.85924 5.48417 2.6518 5.83934C2.44435 6.19451 2.3347 6.59829 2.33398 7.00961V12.9906C2.33475 13.4019 2.44444 13.8056 2.65188 14.1607C2.85933 14.5158 3.15712 14.8096 3.51498 15.0123ZM3.00065 7.00961C3.00101 6.71602 3.07922 6.42778 3.22732 6.17429C3.37541 5.92079 3.58808 5.7111 3.84365 5.56661L9.17698 2.54861C9.42854 2.40721 9.71225 2.33294 10.0008 2.33294C10.2894 2.33294 10.5731 2.40721 10.8247 2.54861L16.158 5.56661C16.4135 5.71117 16.6261 5.92088 16.7741 6.17437C16.9221 6.42786 17.0003 6.71606 17.0007 7.00961V12.9906C17.0002 13.2841 16.922 13.5722 16.774 13.8256C16.6259 14.079 16.4134 14.2887 16.158 14.4333L10.8247 17.4509C10.573 17.5921 10.2893 17.6662 10.0008 17.6662C9.71231 17.6662 9.42863 17.5921 9.17698 17.4509L3.84365 14.4333C3.58816 14.2888 3.37553 14.0791 3.22745 13.8257C3.07936 13.5723 3.0011 13.2841 3.00065 12.9906V7.00961Z" fill="white"/>
<path d="M4.66734 13C4.75574 13 4.84053 12.9648 4.90304 12.9023C4.96555 12.8398 5.00067 12.755 5.00067 12.6666V8.7453L7.03567 12.8156C7.06336 12.871 7.10594 12.9176 7.15864 12.9502C7.21134 12.9828 7.27206 13 7.33401 13C7.3598 12.9999 7.38551 12.997 7.41067 12.9913C7.48378 12.974 7.54891 12.9326 7.5955 12.8736C7.64208 12.8147 7.6674 12.7418 7.66734 12.6666V7.3333C7.66734 7.24489 7.63222 7.16011 7.56971 7.09759C7.5072 7.03508 7.42241 6.99996 7.33401 6.99996C7.2456 6.99996 7.16082 7.03508 7.0983 7.09759C7.03579 7.16011 7.00067 7.24489 7.00067 7.3333V11.2546L4.96734 7.1843C4.93432 7.11609 4.87905 7.06118 4.81063 7.0286C4.74222 6.99602 4.66474 6.98772 4.59098 7.00507C4.51722 7.02243 4.45157 7.0644 4.40486 7.12406C4.35814 7.18373 4.33315 7.25753 4.33401 7.3333V12.6666C4.33401 12.755 4.36912 12.8398 4.43164 12.9023C4.49415 12.9648 4.57893 13 4.66734 13Z" fill="white"/>
<path d="M9.00033 13C9.08873 13 9.17352 12.9649 9.23603 12.9024C9.29854 12.8399 9.33366 12.7551 9.33366 12.6667V10.3333H10.667C10.7554 10.3333 10.8402 10.2982 10.9027 10.2357C10.9652 10.1732 11.0003 10.0884 11.0003 10C11.0003 9.91159 10.9652 9.82681 10.9027 9.7643C10.8402 9.70179 10.7554 9.66667 10.667 9.66667H9.33366V7.66667H11.667C11.7554 7.66667 11.8402 7.63155 11.9027 7.56904C11.9652 7.50652 12.0003 7.42174 12.0003 7.33333C12.0003 7.24493 11.9652 7.16014 11.9027 7.09763C11.8402 7.03512 11.7554 7 11.667 7H9.00033C8.91192 7 8.82714 7.03512 8.76462 7.09763C8.70211 7.16014 8.66699 7.24493 8.66699 7.33333V12.6667C8.66699 12.7551 8.70211 12.8399 8.76462 12.9024C8.82714 12.9649 8.91192 13 9.00033 13Z" fill="white"/>
<path d="M12.6673 7.66667H13.6673V12.6667C13.6673 12.7551 13.7024 12.8399 13.7649 12.9024C13.8275 12.9649 13.9122 13 14.0007 13C14.0891 13 14.1738 12.9649 14.2364 12.9024C14.2989 12.8399 14.334 12.7551 14.334 12.6667V7.66667H15.334C15.4224 7.66667 15.5072 7.63155 15.5697 7.56904C15.6322 7.50652 15.6673 7.42174 15.6673 7.33333C15.6673 7.24493 15.6322 7.16014 15.5697 7.09763C15.5072 7.03512 15.4224 7 15.334 7H12.6673C12.5789 7 12.4941 7.03512 12.4316 7.09763C12.3691 7.16014 12.334 7.24493 12.334 7.33333C12.334 7.42174 12.3691 7.50652 12.4316 7.56904C12.4941 7.63155 12.5789 7.66667 12.6673 7.66667Z" fill="white"/>
</svg>
