<svg width="18" height="18" viewBox="0 0 18 18" fill="none" xmlns="http://www.w3.org/2000/svg">
<path d="M8.99935 2.2499C9.09835 2.2499 9.1966 2.2499 9.2941 2.2499C8.3306 3.14518 7.71129 4.34978 7.54382 5.65431C7.37634 6.95885 7.67129 8.28082 8.3774 9.39044C9.08351 10.5001 10.1561 11.3272 11.4088 11.728C12.6615 12.1288 14.015 12.078 15.2341 11.5844C14.7651 12.7128 13.9987 13.6927 13.0165 14.4196C12.0343 15.1465 10.8732 15.5932 9.65703 15.7119C8.44088 15.8307 7.21529 15.6171 6.11102 15.0939C5.00674 14.5708 4.06518 13.7577 3.38679 12.7413C2.7084 11.725 2.31861 10.5436 2.25901 9.32312C2.19941 8.10264 2.47223 6.88887 3.04838 5.81128C3.62452 4.7337 4.48237 3.83271 5.53042 3.20445C6.57847 2.57618 7.77741 2.24419 8.99935 2.2439V2.2499Z" stroke="black" stroke-width="1.5" stroke-linecap="round" stroke-linejoin="round"/>
<path d="M12.75 3C12.75 3.39782 12.908 3.77936 13.1893 4.06066C13.4706 4.34196 13.8522 4.5 14.25 4.5C13.8522 4.5 13.4706 4.65804 13.1893 4.93934C12.908 5.22064 12.75 5.60218 12.75 6C12.75 5.60218 12.592 5.22064 12.3107 4.93934C12.0294 4.65804 11.6478 4.5 11.25 4.5C11.6478 4.5 12.0294 4.34196 12.3107 4.06066C12.592 3.77936 12.75 3.39782 12.75 3Z" stroke="black" stroke-width="1.5" stroke-linecap="round" stroke-linejoin="round"/>
<path d="M14.25 8.25H15.75M15 7.5V9" stroke="black" stroke-width="1.5" stroke-linecap="round" stroke-linejoin="round"/>
</svg>
