<svg width="34" height="40" viewBox="0 0 34 40" fill="none" xmlns="http://www.w3.org/2000/svg">
<path d="M32.6313 28.1883C30.1113 26.0583 28.6663 22.945 28.6663 19.6467V15C28.6663 9.135 24.3097 4.28 18.6663 3.46667V1.66667C18.6663 0.745 17.9197 0 16.9997 0C16.0797 0 15.333 0.745 15.333 1.66667V3.46667C9.68801 4.28 5.33301 9.135 5.33301 15V19.6467C5.33301 22.945 3.88801 26.0583 1.35301 28.2017C0.704674 28.7567 0.333008 29.5633 0.333008 30.4167C0.333008 32.025 1.64134 33.3333 3.24967 33.3333H30.7497C32.358 33.3333 33.6663 32.025 33.6663 30.4167C33.6663 29.5633 33.2947 28.7567 32.6313 28.1883Z" fill="white"/>
<path d="M16.9993 40C20.0176 40 22.5426 37.8483 23.1226 35H10.876C11.456 37.8483 13.981 40 16.9993 40Z" fill="white"/>
</svg>
