<svg width="26" height="31" viewBox="0 0 26 31" fill="none" xmlns="http://www.w3.org/2000/svg">
<path d="M12.7361 14.9327C14.7875 14.9327 16.5639 14.1969 18.0154 12.7452C19.4669 11.2938 20.2026 9.51783 20.2026 7.46616C20.2026 5.41509 19.4669 3.63896 18.0152 2.187C16.5634 0.73576 14.7873 0 12.7361 0C10.6843 0 8.90832 0.73576 7.4569 2.18724C6.00548 3.63872 5.26942 5.41491 5.26942 7.46616C5.26942 9.51783 6.00542 11.294 7.45714 12.7455C8.90886 14.1967 10.6851 14.9327 12.7361 14.9327ZM25.8006 23.8373C25.7587 23.2333 25.674 22.5743 25.5494 21.8786C25.4236 21.1775 25.2616 20.5148 25.0676 19.9091C24.8673 19.2831 24.5949 18.6649 24.2581 18.0724C23.9085 17.4575 23.4979 16.922 23.0372 16.4814C22.5554 16.0205 21.9656 15.6499 21.2835 15.3795C20.6038 15.1106 19.8504 14.9744 19.0447 14.9744C18.7282 14.9744 18.4222 15.1042 17.8312 15.489C17.411 15.7626 16.9896 16.0343 16.567 16.304C16.1609 16.5628 15.6108 16.8052 14.9313 17.0247C14.2684 17.2392 13.5953 17.348 12.9309 17.348C12.2666 17.348 11.5937 17.2392 10.93 17.0247C10.2513 16.8054 9.70117 16.563 9.29551 16.3042C8.82507 16.0036 8.39943 15.7293 8.03021 15.4887C7.43989 15.104 7.13358 14.9741 6.81717 14.9741C6.01111 14.9741 5.2581 15.1106 4.57858 15.3798C3.89695 15.6496 3.30687 16.0202 2.82462 16.4816C2.36416 16.9225 1.95335 17.4576 1.60424 18.0724C1.26773 18.6648 0.995267 19.2828 0.794677 19.9094C0.600929 20.5151 0.438967 21.1775 0.313152 21.8786C0.188487 22.5734 0.103843 23.2326 0.0619446 23.838C0.0202658 24.4473 -0.000392834 25.0579 5.65588e-06 25.6686C5.65588e-06 27.2868 0.514408 28.5968 1.5288 29.5629C2.53066 30.5164 3.85627 31 5.46831 31H20.3949C22.007 31 23.3321 30.5166 24.3342 29.563C25.3488 28.5975 25.8632 27.2873 25.8632 25.6683C25.863 25.0437 25.842 24.4276 25.8006 23.8373Z" fill="white"/>
</svg>
