<svg width="20" height="20" viewBox="0 0 20 20" fill="none" xmlns="http://www.w3.org/2000/svg">
<path d="M7.49967 3.33337H4.16634C3.7061 3.33337 3.33301 3.70647 3.33301 4.16671V7.50004C3.33301 7.96028 3.7061 8.33337 4.16634 8.33337H7.49967C7.95991 8.33337 8.33301 7.96028 8.33301 7.50004V4.16671C8.33301 3.70647 7.95991 3.33337 7.49967 3.33337Z" stroke="white" stroke-width="1.5" stroke-linecap="round" stroke-linejoin="round"/>
<path d="M15.8337 3.33337H12.5003C12.0401 3.33337 11.667 3.70647 11.667 4.16671V7.50004C11.667 7.96028 12.0401 8.33337 12.5003 8.33337H15.8337C16.2939 8.33337 16.667 7.96028 16.667 7.50004V4.16671C16.667 3.70647 16.2939 3.33337 15.8337 3.33337Z" stroke="white" stroke-width="1.5" stroke-linecap="round" stroke-linejoin="round"/>
<path d="M7.49967 11.6666H4.16634C3.7061 11.6666 3.33301 12.0397 3.33301 12.5V15.8333C3.33301 16.2935 3.7061 16.6666 4.16634 16.6666H7.49967C7.95991 16.6666 8.33301 16.2935 8.33301 15.8333V12.5C8.33301 12.0397 7.95991 11.6666 7.49967 11.6666Z" stroke="white" stroke-width="1.5" stroke-linecap="round" stroke-linejoin="round"/>
<path d="M15.8337 11.6666H12.5003C12.0401 11.6666 11.667 12.0397 11.667 12.5V15.8333C11.667 16.2935 12.0401 16.6666 12.5003 16.6666H15.8337C16.2939 16.6666 16.667 16.2935 16.667 15.8333V12.5C16.667 12.0397 16.2939 11.6666 15.8337 11.6666Z" stroke="white" stroke-width="1.5" stroke-linecap="round" stroke-linejoin="round"/>
</svg>
