<svg width="36" height="36" viewBox="0 0 36 36" fill="none" xmlns="http://www.w3.org/2000/svg">
<path d="M18 36C27.9411 36 36 27.9411 36 18C36 8.05888 27.9411 0 18 0C8.05888 0 0 8.05888 0 18C0 27.9411 8.05888 36 18 36Z" fill="#FF4500"/>
<path d="M35.8382 20.4111C35.3625 23.9146 33.8667 27.2007 31.5369 29.8602C29.2072 32.5197 26.1465 34.435 22.7361 35.3677L11.2232 23.8477C10.7235 18.6869 17.6108 15.8685 17.6108 15.8685L19.3872 9.61582L24.1572 10.7385L25.0382 9.61108L35.8382 20.4111Z" fill="url(#paint0_linear_53_162)"/>
<path d="M24.9942 15.9821C24.726 15.9832 24.4606 16.0378 24.2138 16.1427C23.9669 16.2476 23.7435 16.4008 23.5566 16.5932C22.013 15.5594 20.2036 14.9935 18.346 14.9637L19.4047 10.1605L22.7513 10.9232C22.7494 11.3202 22.9048 11.7018 23.1836 11.9845C23.4623 12.2673 23.8417 12.4281 24.2387 12.4318C24.5125 12.4372 24.7829 12.369 25.0213 12.2342C25.2598 12.0995 25.4578 11.9031 25.5945 11.6658C25.7312 11.4284 25.8017 11.1587 25.7986 10.8848C25.7955 10.6108 25.7189 10.3428 25.5768 10.1086C25.4347 9.87436 25.2324 9.6826 24.9909 9.5533C24.7494 9.424 24.4776 9.3619 24.2039 9.3735C23.9302 9.3851 23.6647 9.46997 23.435 9.61924C23.2053 9.76851 23.0199 9.97671 22.8981 10.2221L19.2034 9.39078C19.1118 9.37255 19.0166 9.39117 18.9386 9.44259C18.8606 9.49402 18.8059 9.57411 18.7866 9.66552L17.6331 14.9613C15.7869 15.0141 13.9935 15.589 12.4605 16.6192C12.2732 16.421 12.0474 16.2631 11.797 16.1551C11.5465 16.0472 11.2767 15.9916 11.0039 15.9916C8.89604 15.9916 8.20446 18.8621 10.1371 19.845C10.0692 20.1562 10.0359 20.4739 10.0376 20.7924C10.0376 24.0182 13.6187 26.6329 18.0168 26.6329C22.415 26.6329 26.0126 24.0276 26.0126 20.7924C26.0161 20.4666 25.9771 20.1417 25.8966 19.826C27.7913 18.8408 27.0808 15.9892 24.9942 15.9892V15.9821ZM13.2018 20.0392C13.2051 19.7443 13.2954 19.4569 13.4615 19.2132C13.6275 18.9694 13.8618 18.7801 14.1351 18.6691C14.4083 18.5581 14.7083 18.5302 14.9973 18.5891C15.2863 18.6479 15.5514 18.7908 15.7595 18.9999C15.9675 19.2089 16.1092 19.4748 16.1667 19.764C16.2242 20.0533 16.1949 20.3531 16.0826 20.6258C15.9703 20.8985 15.7799 21.132 15.5354 21.2969C15.2909 21.4618 15.0031 21.5507 14.7081 21.5526C14.3086 21.5514 13.9258 21.3919 13.6436 21.1092C13.3613 20.8265 13.2025 20.4435 13.2018 20.0439V20.0392ZM21.3302 23.6368C19.9495 25.0389 16.0534 25.0389 14.6726 23.6368C14.6113 23.5687 14.5779 23.48 14.5791 23.3883C14.5802 23.2967 14.6159 23.2088 14.6789 23.1422C14.7419 23.0757 14.8276 23.0352 14.919 23.029C15.0105 23.0228 15.1009 23.0512 15.1724 23.1087C16.2263 24.2076 19.7245 24.2266 20.8258 23.1087C20.8605 23.0756 20.9013 23.0496 20.946 23.0323C20.9907 23.0149 21.0384 23.0066 21.0864 23.0077C21.1343 23.0088 21.1816 23.0193 21.2255 23.0387C21.2693 23.058 21.309 23.0858 21.3421 23.1205C21.3752 23.1552 21.4012 23.1961 21.4185 23.2408C21.4358 23.2855 21.4442 23.3332 21.4431 23.3811C21.442 23.4291 21.4315 23.4763 21.4121 23.5202C21.3927 23.5641 21.3649 23.6037 21.3302 23.6368ZM21.2995 21.5526C20.9982 21.555 20.7031 21.4676 20.4516 21.3017C20.2001 21.1358 20.0037 20.8988 19.8873 20.6209C19.771 20.343 19.7399 20.0368 19.7981 19.7412C19.8563 19.4456 20.0011 19.174 20.2142 18.961C20.4272 18.748 20.6988 18.6032 20.9944 18.545C21.29 18.4868 21.5962 18.5178 21.8741 18.6342C22.152 18.7506 22.3889 18.947 22.5549 19.1984C22.7208 19.4499 22.8081 19.7451 22.8058 20.0463C22.8067 20.2444 22.7684 20.4407 22.693 20.6239C22.6177 20.807 22.5067 20.9735 22.3667 21.1135C22.2266 21.2536 22.0602 21.3645 21.877 21.4399C21.6938 21.5152 21.4975 21.5536 21.2995 21.5526Z" fill="white"/>
<defs>
<linearGradient id="paint0_linear_53_162" x1="15.1998" y1="13.7985" x2="31.4282" y2="30.0269" gradientUnits="userSpaceOnUse">
<stop stop-color="#B83200"/>
<stop offset="0.15" stop-color="#B83200" stop-opacity="0.88"/>
<stop offset="0.47" stop-color="#B83200" stop-opacity="0.55"/>
<stop offset="0.93" stop-color="#B83200" stop-opacity="0.04"/>
<stop offset="0.97" stop-color="#B83200" stop-opacity="0"/>
</linearGradient>
</defs>
</svg>
