<svg width="30" height="30" viewBox="0 0 30 30" fill="none" xmlns="http://www.w3.org/2000/svg">
<path d="M29.9649 2.23956C29.8999 1.04788 28.9521 0.100247 27.7604 0.0352076C25.3559 -0.0961596 20.6506 0.0316335 16.1513 2.3588C13.8576 3.54521 11.4318 5.55667 9.49595 7.87745C9.4721 7.90605 9.4489 7.93482 9.42523 7.96347L5.03187 8.30285C4.30871 8.35874 3.66458 8.73779 3.26462 9.34271L0.267319 13.8762C-0.0360205 14.335 -0.0842432 14.9092 0.138237 15.4121C0.360776 15.9151 0.818042 16.2656 1.3615 16.3498L5.06292 16.923C5.04986 16.995 5.03673 17.0669 5.02472 17.1388C4.9015 17.8759 5.14572 18.6338 5.6781 19.1661L10.8339 24.322C11.2753 24.7634 11.8717 25.0067 12.4828 25.0067C12.6087 25.0067 12.7352 24.9963 12.8612 24.9753C12.9332 24.9633 13.0051 24.9501 13.077 24.9371L13.6503 28.6386C13.7345 29.182 14.085 29.6394 14.5879 29.8618C14.7971 29.9544 15.0185 30.0001 15.239 30.0001C15.5485 30.0001 15.8559 29.9099 16.1238 29.7328L20.6573 26.7354C21.2623 26.3354 21.6413 25.6913 21.697 24.9682L22.0364 20.5749C22.0651 20.5512 22.0939 20.528 22.1225 20.5042C24.4433 18.5683 26.4549 16.1425 27.6412 13.8488C29.9685 9.34933 30.096 4.64396 29.9649 2.23956ZM19.6879 25.2691L15.3513 28.1362L14.7925 24.5289C16.6253 23.99 18.4384 23.1269 20.1657 21.9707L19.9446 24.8327C19.9309 25.0113 19.8372 25.1703 19.6879 25.2691ZM12.0768 23.079L6.92099 17.9232C6.78945 17.7916 6.72863 17.6067 6.75845 17.4286C6.91173 16.5121 7.14992 15.6395 7.44476 14.8176L15.1808 22.5536C14.1936 22.9072 13.3094 23.1182 12.5714 23.2416C12.393 23.2712 12.2084 23.2106 12.0768 23.079ZM5.16728 10.0554L8.02923 9.83437C6.87294 11.5617 6.00986 13.3747 5.47097 15.2075L1.86371 14.6488L4.73093 10.3122C4.82972 10.1628 4.9888 10.0692 5.16728 10.0554ZM20.9967 19.1542C19.5768 20.3386 18.1985 21.1952 16.928 21.8151L8.18462 13.0717C8.99662 11.4132 9.98761 10.0322 10.8458 9.00345C12.6373 6.8557 14.8654 5.0029 16.9589 3.92009C21.0883 1.78417 25.4389 1.66915 27.6648 1.79032C27.9594 1.80638 28.1937 2.0407 28.2097 2.33536C28.3311 4.56122 28.2158 8.91181 26.0799 13.0412C24.9972 15.1346 23.1444 17.3627 20.9967 19.1542Z" fill="white"/>
<path d="M20.5507 13.8424C21.6758 13.8423 22.8014 13.4139 23.658 12.5574C24.488 11.7274 24.945 10.6238 24.945 9.45007C24.945 8.27632 24.4879 7.17277 23.658 6.34279C21.9446 4.62933 19.1567 4.62945 17.4434 6.34279C16.6133 7.17277 16.1562 8.27632 16.1562 9.45007C16.1562 10.6238 16.6134 11.7274 17.4434 12.5574C18.3001 13.4141 19.4251 13.8425 20.5507 13.8424ZM18.6862 7.58568C19.2002 7.07164 19.8754 6.81464 20.5505 6.81464C21.2258 6.81464 21.901 7.07164 22.4149 7.58568C22.9129 8.08367 23.1872 8.74578 23.1872 9.45002C23.1872 10.1543 22.9129 10.8164 22.4149 11.3144C21.387 12.3424 19.7142 12.3424 18.6862 11.3144C18.1882 10.8164 17.9139 10.1543 17.9139 9.45007C17.9139 8.74584 18.1882 8.08367 18.6862 7.58568Z" fill="white"/>
<path d="M0.896455 24.7229C1.1214 24.7229 1.34634 24.6372 1.5179 24.4655L4.38741 21.596C4.73065 21.2527 4.73065 20.6963 4.38741 20.353C4.04423 20.0098 3.48771 20.0098 3.14446 20.353L0.27501 23.2225C-0.0682324 23.5658 -0.0682324 24.1222 0.27501 24.4655C0.446572 24.6371 0.671514 24.7229 0.896455 24.7229Z" fill="white"/>
<path d="M7.01722 22.9828C6.67403 22.6395 6.11751 22.6395 5.77427 22.9828L0.257432 28.4997C-0.0858105 28.8429 -0.0858105 29.3994 0.257432 29.7426C0.429053 29.9142 0.653936 30 0.878877 30C1.10382 30 1.32876 29.9142 1.50032 29.7426L7.01716 24.2257C7.36046 23.8825 7.36046 23.326 7.01722 22.9828Z" fill="white"/>
<path d="M8.40429 25.6125L5.53478 28.482C5.19153 28.8253 5.19153 29.3818 5.53478 29.725C5.7064 29.8966 5.93134 29.9825 6.15622 29.9825C6.3811 29.9825 6.6061 29.8967 6.77767 29.725L9.64718 26.8555C9.99042 26.5122 9.99042 25.9558 9.64718 25.6125C9.30399 25.2693 8.74747 25.2693 8.40429 25.6125Z" fill="white"/>
</svg>
