<svg width="40" height="40" viewBox="0 0 40 40" fill="none" xmlns="http://www.w3.org/2000/svg">
<path d="M17.2083 7.19488C17.9183 4.26821 22.0817 4.26821 22.7917 7.19488C22.8982 7.63454 23.107 8.04284 23.4012 8.38654C23.6953 8.73024 24.0665 8.99964 24.4844 9.17279C24.9024 9.34594 25.3553 9.41796 25.8063 9.38299C26.2573 9.34802 26.6937 9.20705 27.08 8.97154C29.6517 7.40488 32.5967 10.3482 31.03 12.9215C30.7948 13.3076 30.6541 13.7438 30.6192 14.1945C30.5843 14.6452 30.6563 15.0978 30.8292 15.5155C31.0022 15.9332 31.2712 16.3042 31.6145 16.5983C31.9579 16.8924 32.3657 17.1014 32.805 17.2082C35.7317 17.9182 35.7317 22.0815 32.805 22.7915C32.3653 22.8981 31.957 23.1069 31.6133 23.4011C31.2696 23.6952 31.0002 24.0664 30.8271 24.4843C30.6539 24.9022 30.5819 25.3552 30.6169 25.8062C30.6519 26.2572 30.7928 26.6936 31.0283 27.0799C32.595 29.6515 29.6517 32.5965 27.0783 31.0299C26.6922 30.7947 26.2561 30.654 25.8054 30.6191C25.3547 30.5842 24.9021 30.6561 24.4844 30.8291C24.0667 31.002 23.6957 31.2711 23.4016 31.6144C23.1075 31.9577 22.8985 32.3656 22.7917 32.8049C22.0817 35.7315 17.9183 35.7315 17.2083 32.8049C17.1018 32.3652 16.893 31.9569 16.5988 31.6132C16.3047 31.2695 15.9335 31.0001 15.5156 30.827C15.0976 30.6538 14.6447 30.5818 14.1937 30.6168C13.7427 30.6517 13.3063 30.7927 12.92 31.0282C10.3483 32.5949 7.40333 29.6515 8.97 27.0782C9.20517 26.6921 9.34592 26.256 9.38081 25.8053C9.41569 25.3545 9.34374 24.9019 9.17079 24.4842C8.99783 24.0666 8.72877 23.6956 8.38545 23.4015C8.04214 23.1073 7.63427 22.8984 7.195 22.7915C4.26833 22.0815 4.26833 17.9182 7.195 17.2082C7.63467 17.1017 8.04296 16.8928 8.38667 16.5987C8.73037 16.3045 8.99976 15.9334 9.17291 15.5155C9.34606 15.0975 9.41808 14.6446 9.38311 14.1936C9.34814 13.7425 9.20717 13.3061 8.97167 12.9199C7.405 10.3482 10.3483 7.40321 12.9217 8.96988C14.5883 9.98321 16.7483 9.08654 17.2083 7.19488Z" stroke="white" stroke-width="1.5" stroke-linecap="round" stroke-linejoin="round"/>
<path d="M20 25.0002C22.7614 25.0002 25 22.7617 25 20.0002C25 17.2388 22.7614 15.0002 20 15.0002C17.2386 15.0002 15 17.2388 15 20.0002C15 22.7617 17.2386 25.0002 20 25.0002Z" stroke="white" stroke-width="1.5" stroke-linecap="round" stroke-linejoin="round"/>
</svg>
