<svg width="210" height="36" viewBox="0 0 210 36" fill="none" xmlns="http://www.w3.org/2000/svg">
<path d="M28.5769 15.5385V26L15.0385 34L6.42308 29.0769M23.0385 22.9231L15.0385 27.2308L7.03846 21.6923M7.03846 21.6923L1.5 26V25.3846V10.6154L15.0385 2L27.3462 9.38462L21.8077 13.0769L15.0385 9.38462L7.03846 13.6923V21.6923Z" stroke="white" stroke-width="2.2" stroke-linecap="round" stroke-linejoin="round"/>
<path d="M48.2811 28.224C46.3211 28.224 44.5478 27.7947 42.9611 26.936C41.3931 26.0587 40.1611 24.864 39.2651 23.352C38.3691 21.8213 37.9211 20.104 37.9211 18.2C37.9211 16.296 38.3691 14.588 39.2651 13.076C40.1611 11.5453 41.4025 10.3507 42.9891 9.492C44.5758 8.61467 46.3491 8.176 48.3091 8.176C49.8398 8.176 51.2398 8.43733 52.5091 8.96C53.7785 9.464 54.8611 10.22 55.7572 11.228L53.9371 12.992C52.4625 11.4427 50.6238 10.668 48.4211 10.668C46.9651 10.668 45.6491 10.9947 44.4731 11.648C43.2971 12.3013 42.3731 13.2067 41.7011 14.364C41.0478 15.5027 40.7211 16.7813 40.7211 18.2C40.7211 19.6187 41.0478 20.9067 41.7011 22.064C42.3731 23.2027 43.2971 24.0987 44.4731 24.752C45.6491 25.4053 46.9651 25.732 48.4211 25.732C50.6051 25.732 52.4438 24.948 53.9371 23.38L55.7572 25.144C54.8611 26.152 53.7691 26.9173 52.4811 27.44C51.2118 27.9627 49.8118 28.224 48.2811 28.224ZM68.1894 28.224C66.2107 28.224 64.428 27.7947 62.8414 26.936C61.2547 26.0587 60.004 24.8547 59.0894 23.324C58.1934 21.7933 57.7454 20.0853 57.7454 18.2C57.7454 16.3147 58.1934 14.6067 59.0894 13.076C60.004 11.5453 61.2547 10.3507 62.8414 9.492C64.428 8.61467 66.2107 8.176 68.1894 8.176C70.1494 8.176 71.9227 8.61467 73.5094 9.492C75.096 10.3507 76.3374 11.5453 77.2334 13.076C78.1294 14.588 78.5774 16.296 78.5774 18.2C78.5774 20.104 78.1294 21.8213 77.2334 23.352C76.3374 24.864 75.096 26.0587 73.5094 26.936C71.9227 27.7947 70.1494 28.224 68.1894 28.224ZM68.1894 25.732C69.6267 25.732 70.9147 25.4053 72.0534 24.752C73.2107 24.0987 74.116 23.2027 74.7694 22.064C75.4414 20.9067 75.7774 19.6187 75.7774 18.2C75.7774 16.7813 75.4414 15.5027 74.7694 14.364C74.116 13.2067 73.2107 12.3013 72.0534 11.648C70.9147 10.9947 69.6267 10.668 68.1894 10.668C66.752 10.668 65.4454 10.9947 64.2694 11.648C63.112 12.3013 62.1974 13.2067 61.5254 14.364C60.872 15.5027 60.5454 16.7813 60.5454 18.2C60.5454 19.6187 60.872 20.9067 61.5254 22.064C62.1974 23.2027 63.112 24.0987 64.2694 24.752C65.4454 25.4053 66.752 25.732 68.1894 25.732ZM99.713 8.4V28H97.417L85.657 13.384V28H82.857V8.4H85.153L96.913 23.016V8.4H99.713ZM111.292 28.224C109.817 28.224 108.389 28 107.008 27.552C105.645 27.0853 104.572 26.488 103.788 25.76L104.824 23.576C105.57 24.248 106.522 24.7987 107.68 25.228C108.856 25.6387 110.06 25.844 111.292 25.844C112.916 25.844 114.129 25.5733 114.932 25.032C115.734 24.472 116.136 23.7347 116.136 22.82C116.136 22.148 115.912 21.6067 115.464 21.196C115.034 20.7667 114.493 20.44 113.84 20.216C113.205 19.992 112.3 19.74 111.124 19.46C109.649 19.1053 108.454 18.7507 107.54 18.396C106.644 18.0413 105.869 17.5 105.216 16.772C104.581 16.0253 104.264 15.0267 104.264 13.776C104.264 12.7307 104.534 11.788 105.076 10.948C105.636 10.108 106.476 9.436 107.596 8.932C108.716 8.428 110.106 8.176 111.768 8.176C112.925 8.176 114.064 8.32533 115.184 8.624C116.304 8.92267 117.265 9.352 118.068 9.912L117.144 12.152C116.322 11.6293 115.445 11.2373 114.512 10.976C113.578 10.696 112.664 10.556 111.768 10.556C110.181 10.556 108.986 10.8453 108.184 11.424C107.4 12.0027 107.008 12.7493 107.008 13.664C107.008 14.336 107.232 14.8867 107.68 15.316C108.128 15.7267 108.678 16.0533 109.332 16.296C110.004 16.52 110.909 16.7627 112.048 17.024C113.522 17.3787 114.708 17.7333 115.604 18.088C116.5 18.4427 117.265 18.984 117.9 19.712C118.553 20.44 118.88 21.42 118.88 22.652C118.88 23.6787 118.6 24.6213 118.04 25.48C117.48 26.32 116.63 26.992 115.492 27.496C114.353 27.9813 112.953 28.224 111.292 28.224ZM131.818 28.224C129.84 28.224 128.057 27.7947 126.47 26.936C124.884 26.0587 123.633 24.8547 122.718 23.324C121.822 21.7933 121.374 20.0853 121.374 18.2C121.374 16.3147 121.822 14.6067 122.718 13.076C123.633 11.5453 124.884 10.3507 126.47 9.492C128.057 8.61467 129.84 8.176 131.818 8.176C133.778 8.176 135.552 8.61467 137.138 9.492C138.725 10.3507 139.966 11.5453 140.862 13.076C141.758 14.588 142.206 16.296 142.206 18.2C142.206 20.104 141.758 21.8213 140.862 23.352C139.966 24.864 138.725 26.0587 137.138 26.936C135.552 27.7947 133.778 28.224 131.818 28.224ZM131.818 25.732C133.256 25.732 134.544 25.4053 135.682 24.752C136.84 24.0987 137.745 23.2027 138.398 22.064C139.07 20.9067 139.406 19.6187 139.406 18.2C139.406 16.7813 139.07 15.5027 138.398 14.364C137.745 13.2067 136.84 12.3013 135.682 11.648C134.544 10.9947 133.256 10.668 131.818 10.668C130.381 10.668 129.074 10.9947 127.898 11.648C126.741 12.3013 125.826 13.2067 125.154 14.364C124.501 15.5027 124.174 16.7813 124.174 18.2C124.174 19.6187 124.501 20.9067 125.154 22.064C125.826 23.2027 126.741 24.0987 127.898 24.752C129.074 25.4053 130.381 25.732 131.818 25.732ZM159.59 28L155.362 21.98C154.839 22.0173 154.429 22.036 154.13 22.036H149.286V28H146.486V8.4H154.13C156.669 8.4 158.666 9.00667 160.122 10.22C161.578 11.4333 162.306 13.104 162.306 15.232C162.306 16.744 161.933 18.032 161.186 19.096C160.439 20.16 159.375 20.9347 157.994 21.42L162.642 28H159.59ZM154.046 19.656C155.819 19.656 157.173 19.2733 158.106 18.508C159.039 17.7427 159.506 16.6507 159.506 15.232C159.506 13.8133 159.039 12.7307 158.106 11.984C157.173 11.2187 155.819 10.836 154.046 10.836H149.286V19.656H154.046ZM170.448 10.836H163.728V8.4H179.94V10.836H173.22V28H170.448V10.836ZM182.99 8.4H185.79V28H182.99V8.4ZM204.146 23.1H193.73L191.574 28H188.69L197.566 8.4H200.338L209.242 28H206.302L204.146 23.1ZM203.166 20.86L198.938 11.256L194.71 20.86H203.166Z" fill="white"/>
</svg>
