<svg width="49" height="44" viewBox="0 0 49 44" fill="none" xmlns="http://www.w3.org/2000/svg">
<path d="M42.7888 26.2347C42.2396 25.6856 41.3493 25.6856 40.8001 26.2347C40.2509 26.7838 40.2509 27.6742 40.8001 28.2234L43.6369 31.0602C43.9114 31.3348 44.2713 31.472 44.6312 31.472C44.9911 31.472 45.351 31.3347 45.6256 31.0602C46.1748 30.5111 46.1748 29.6207 45.6256 29.0715L42.7888 26.2347Z" fill="white"/>
<path d="M41.7944 14.5971C42.1542 14.5971 42.5142 14.4598 42.7888 14.1853L45.6256 11.3485C46.1748 10.7994 46.1748 9.90895 45.6256 9.35977C45.0764 8.81058 44.186 8.81058 43.6369 9.35977L40.8001 12.1965C40.2509 12.7456 40.2509 13.6361 40.8001 14.1853C41.0747 14.4599 41.4345 14.5971 41.7944 14.5971Z" fill="white"/>
<path d="M47.0938 18.8037H43.0819C42.3053 18.8037 41.6757 19.4333 41.6757 20.21C41.6757 20.9866 42.3053 21.6162 43.0819 21.6162H47.0938C47.8704 21.6162 48.5 20.9866 48.5 20.21C48.5 19.4333 47.8704 18.8037 47.0938 18.8037Z" fill="white"/>
<path d="M37.9294 0.211325C37.4854 -0.0373942 36.9417 -0.0267067 36.5077 0.238981L20.4028 10.1019H13.2534C11.7265 10.0212 10.2739 10.5534 9.15884 11.603C8.74381 11.9935 8.39394 12.4444 8.11512 12.9356H4.57691C2.32887 12.9356 0.5 14.7645 0.5 17.0125V23.4074C0.5 25.6554 2.32887 27.4843 4.57691 27.4843H8.10809C8.67434 28.4966 9.52916 29.3358 10.5684 29.8912L5.66891 38.3774C5.48094 38.703 5.43116 39.0903 5.53062 39.4529C5.63019 39.8154 5.87075 40.123 6.19859 40.307L12.4032 43.7878C12.6207 43.9099 12.8569 43.9679 13.09 43.9679C13.5763 43.9679 14.0488 43.7153 14.309 43.2645L21.3052 31.1466L36.5236 40.1905C36.7449 40.3221 36.9934 40.3879 37.242 40.3879C37.4818 40.3879 37.7218 40.3267 37.9375 40.2039C38.3769 39.9538 38.6483 39.4871 38.6483 38.9816V1.43823C38.6483 0.929356 38.3733 0.460137 37.9294 0.211325ZM4.57691 24.6718C3.87969 24.6718 3.3125 24.1046 3.3125 23.4074V17.0125C3.3125 16.3153 3.87969 15.7481 4.57691 15.7481H7.35697C7.35678 15.7691 7.35538 15.79 7.35538 15.811V24.6089C7.35538 24.63 7.35669 24.6508 7.35697 24.6718H4.57691ZM10.1679 15.811C10.1679 14.9877 10.5027 14.2004 11.0863 13.651C11.6419 13.1282 12.3668 12.8652 13.1285 12.9119C13.1569 12.9136 19.3932 12.9144 19.3932 12.9144V27.8038H13.2598C11.5227 27.679 10.1679 26.2828 10.1679 24.6088V15.811ZM12.5679 40.6554L8.81637 38.5508L13.3144 30.7599C13.3415 30.713 13.3648 30.6649 13.3859 30.6164H18.3638L12.5679 40.6554ZM35.8358 36.5101L22.2057 28.41V12.296L35.8358 3.94848V36.5101Z" fill="white"/>
</svg>
