<svg width="18" height="20" viewBox="0 0 18 20" fill="none" xmlns="http://www.w3.org/2000/svg">
<path d="M0 7.03294V18.2395C0 19.2102 0.789821 20 1.7605 20H7.8418C8.80047 20 9.5813 19.2293 9.60046 18.2751L12.1195 19.7294C12.7453 20.0906 13.5209 20.0892 14.1442 19.7294L16.8616 18.1606C17.486 17.7998 17.874 17.128 17.874 16.4072V13.2695C17.874 12.5484 17.486 11.8766 16.8616 11.5159L14.1442 9.94702C13.5192 9.58629 12.7433 9.58648 12.1195 9.94702L9.6023 11.4003V7.0329C9.6023 6.55031 9.40252 6.0844 9.0538 5.75436L7.88565 4.65025C8.0594 4.24114 8.15229 3.80593 8.15229 3.35114C8.15229 1.50337 6.64916 0 4.80135 0C2.95354 0 1.45021 1.5034 1.45021 3.35122C1.45021 3.80605 1.54305 4.24114 1.71673 4.65017L0.548466 5.75444C0.199978 6.08444 0 6.55035 0 7.03294ZM9.61043 11.8768L12.3278 10.308C12.8248 10.021 13.4409 10.0221 13.9359 10.308L16.6533 11.8768C17.1493 12.1633 17.4573 12.6968 17.4573 13.2695V16.4072C17.4573 16.9797 17.1493 17.5132 16.6533 17.7997L13.9359 19.3685C13.4397 19.6552 12.8232 19.655 12.3278 19.3685L9.61043 17.7997C9.11441 17.5132 8.80636 16.9797 8.80636 16.4072V13.2695C8.8064 12.6968 9.11441 12.1633 9.61043 11.8768ZM4.80135 0.416757C6.41923 0.416757 7.73561 1.7331 7.73561 3.35122C7.73561 3.69637 7.67625 4.02872 7.56201 4.34439L6.01008 2.87757C5.33219 2.23465 4.26992 2.23485 3.59241 2.87738L2.04049 4.34423C1.92625 4.02888 1.86689 3.69645 1.86689 3.35122C1.86689 1.73314 3.18327 0.416757 4.80135 0.416757ZM3.87868 3.1799C4.39605 2.68977 5.20601 2.68957 5.72382 3.18009L7.37966 4.74529C7.06862 5.31908 6.5697 5.77784 5.97373 6.03745C5.74011 5.63184 5.30267 5.35751 4.80135 5.35751C4.05549 5.35751 3.44857 5.96341 3.44857 6.70824C3.44857 7.45288 4.05549 8.05878 4.80135 8.05878C5.5472 8.05878 6.15392 7.45288 6.15392 6.70824C6.15392 6.61135 6.14321 6.51698 6.1237 6.42586C6.77706 6.14556 7.33208 5.65653 7.69282 5.04133L8.76753 6.05719C9.03323 6.30868 9.18562 6.66431 9.18562 7.03298V11.661C8.68949 12.0409 8.38972 12.636 8.38972 13.2695V16.4072C8.38972 17.0405 8.68953 17.6356 9.18562 18.0155V18.2395C9.18562 18.9805 8.58278 19.5833 7.8418 19.5833H1.7605C1.01952 19.5833 0.416679 18.9805 0.416679 18.2395V7.03294C0.416679 6.65897 0.56519 6.31229 0.834771 6.05716L3.87868 3.1799ZM4.80135 6.70212C5.11819 6.70212 5.42727 6.65666 5.72335 6.57107C5.73006 6.61618 5.73725 6.66125 5.73725 6.7082C5.73725 7.22314 5.31731 7.64206 4.80135 7.64206C4.28519 7.64206 3.86525 7.22314 3.86525 6.7082C3.86525 6.19326 4.28519 5.77415 4.80135 5.77415C5.12169 5.77415 5.40458 5.93608 5.57342 6.18184C5.32489 6.25018 5.06622 6.28544 4.80135 6.28544C4.6862 6.28544 4.59301 6.37863 4.59301 6.49378C4.59301 6.60896 4.6862 6.70212 4.80135 6.70212ZM10.1852 15.773V13.9035C10.1852 13.6968 10.4547 13.6168 10.5679 13.7893L11.409 15.0744V13.9035C11.409 13.7883 11.5022 13.6951 11.6173 13.6951C11.7325 13.6951 11.8257 13.7883 11.8257 13.9035V15.773C11.8257 15.9805 11.5559 16.0592 11.443 15.8872L10.6019 14.6021V15.773C10.6019 15.8882 10.5087 15.9814 10.3935 15.9814C10.2784 15.9814 10.1852 15.8882 10.1852 15.773ZM14.3327 13.9035C14.3327 13.7883 14.4259 13.6951 14.541 13.6951H15.87C15.9851 13.6951 16.0783 13.7883 16.0783 13.9035C16.0783 14.0186 15.9851 14.1118 15.87 14.1118H15.4139V15.773C15.4139 15.8882 15.3207 15.9814 15.2055 15.9814C15.0904 15.9814 14.9972 15.8882 14.9972 15.773V14.1118H14.541C14.4258 14.1118 14.3327 14.0186 14.3327 13.9035ZM12.4999 15.773V13.9035C12.4999 13.7883 12.5931 13.6951 12.7083 13.6951H13.6442C13.7593 13.6951 13.8525 13.7883 13.8525 13.9035C13.8525 14.0186 13.7593 14.1118 13.6442 14.1118H12.9166V14.63H13.6442C13.7593 14.63 13.8525 14.7232 13.8525 14.8383C13.8525 14.9535 13.7593 15.0467 13.6442 15.0467H12.9166V15.773C12.9166 15.8882 12.8234 15.9814 12.7083 15.9814C12.5931 15.9814 12.4999 15.8882 12.4999 15.773ZM2.49964 17.7089H7.10262C7.21776 17.7089 7.31096 17.6157 7.31096 17.5006V11.6756C7.31096 11.5605 7.21776 11.4673 7.10262 11.4673H2.49964C2.3845 11.4673 2.2913 11.5605 2.2913 11.6756V17.5006C2.2913 17.6157 2.3845 17.7089 2.49964 17.7089ZM2.70798 11.8839H6.89428V17.2922H2.70798V11.8839Z" fill="white"/>
</svg>
