<svg width="34" height="40" viewBox="0 0 34 40" fill="none" xmlns="http://www.w3.org/2000/svg">
<path d="M16.4332 19.2681C19.0803 19.2681 21.3724 18.3187 23.2453 16.4456C25.1182 14.5727 26.0676 12.2811 26.0676 9.63375C26.0676 6.98728 25.1182 4.69542 23.245 2.82195C21.3718 0.949398 19.08 0 16.4332 0C13.7858 0 11.4942 0.949398 9.62139 2.82226C7.74853 4.69511 6.79883 6.98697 6.79883 9.63375C6.79883 12.2811 7.74853 14.573 9.62169 16.4459C11.4949 18.3184 13.7867 19.2681 16.4332 19.2681Z" fill="white"/>
<path d="M33.2911 30.7579C33.2371 29.9785 33.1278 29.1283 32.967 28.2305C32.8046 27.3259 32.5956 26.4708 32.3453 25.6893C32.0869 24.8815 31.7353 24.0838 31.3007 23.3193C30.8497 22.5259 30.3199 21.8349 29.7254 21.2664C29.1038 20.6716 28.3427 20.1934 27.4626 19.8446C26.5855 19.4976 25.6135 19.3218 24.5738 19.3218C24.1655 19.3218 23.7706 19.4894 23.0079 19.9859C22.5386 20.292 21.9896 20.646 21.3768 21.0375C20.8528 21.3714 20.143 21.6842 19.2662 21.9674C18.4108 22.2442 17.5423 22.3846 16.6851 22.3846C15.8278 22.3846 14.9596 22.2442 14.1033 21.9674C13.2274 21.6845 12.5176 21.3717 11.9942 21.0378C11.3872 20.65 10.8379 20.296 10.3616 19.9856C9.59984 19.4891 9.20464 19.3215 8.79632 19.3215C7.75629 19.3215 6.78462 19.4976 5.90785 19.8449C5.02834 20.1931 4.26694 20.6713 3.64469 21.2667C3.05051 21.8356 2.52043 22.5262 2.06999 23.3193C1.63573 24.0838 1.28417 24.8812 1.02538 25.6896C0.775446 26.4711 0.566402 27.3259 0.40405 28.2305C0.243223 29.1271 0.133971 29.9776 0.0799555 30.7588C0.0268553 31.5242 0 32.3186 0 33.1209C0 35.2089 0.663752 36.8992 1.97264 38.1459C3.26536 39.376 4.97585 40.0001 7.05592 40.0001H26.316C28.3961 40.0001 30.106 39.3763 31.399 38.1459C32.7082 36.9001 33.3719 35.2095 33.3719 33.1206C33.3716 32.3146 33.3445 31.5196 33.2911 30.7579Z" fill="white"/>
</svg>
