<svg width="20" height="21" viewBox="0 0 20 21" fill="none" xmlns="http://www.w3.org/2000/svg">
<g clip-path="url(#clip0_462_3629)">
<path d="M17.5008 3.6239H5.00518C4.31507 3.6239 3.75562 4.18335 3.75562 4.87346C3.75562 5.56357 4.31507 6.12302 5.00518 6.12302H17.5008C18.1909 6.12302 18.7503 5.56357 18.7503 4.87346C18.7503 4.18335 18.1909 3.6239 17.5008 3.6239Z" fill="white"/>
<path d="M2.50612 4.87345C2.50471 4.54259 2.37214 4.22579 2.1375 3.99251C1.65013 3.50803 0.862988 3.50803 0.37562 3.99251C0.140937 4.22579 0.0083662 4.54259 0.00699949 4.87345C-0.00233316 4.9544 -0.00233316 5.03617 0.00699949 5.11711C0.0211351 5.19853 0.0441739 5.27815 0.0757253 5.35453C0.109268 5.42853 0.148981 5.4996 0.194434 5.56695C0.239301 5.63701 0.291665 5.70195 0.350629 5.76064C0.407484 5.81726 0.470313 5.86755 0.538063 5.91058C0.60386 5.9585 0.675202 5.99837 0.750488 6.02929C0.83331 6.07225 0.9216 6.1038 1.0129 6.12301C1.09384 6.13207 1.17561 6.13207 1.25656 6.12301C1.58652 6.12328 1.90321 5.99302 2.1375 5.76064C2.19646 5.70195 2.24883 5.63701 2.2937 5.56695C2.33915 5.4996 2.37886 5.42853 2.4124 5.35453C2.45227 5.27909 2.48371 5.19947 2.50612 5.11711C2.51545 5.03617 2.51545 4.9544 2.50612 4.87345Z" fill="white"/>
<path d="M2.5062 10.4965C2.5155 10.4155 2.5155 10.3338 2.5062 10.2528C2.48461 10.1722 2.45313 10.0946 2.41248 10.0217C2.38031 9.94501 2.34052 9.87176 2.29378 9.80299C2.25047 9.73372 2.19791 9.67065 2.13758 9.61556C1.65021 9.13108 0.863068 9.13108 0.375701 9.61556C0.141017 9.84883 0.00844679 10.1656 0.00708008 10.4965C0.0095011 10.6612 0.0412478 10.824 0.100797 10.9776C0.132114 11.0515 0.169757 11.1226 0.213258 11.19C0.26078 11.2579 0.315214 11.3207 0.375701 11.3774C0.430915 11.4376 0.49394 11.4902 0.563135 11.5336C0.628932 11.5816 0.700235 11.6215 0.77556 11.6523C0.851744 11.6844 0.931443 11.7075 1.01298 11.7211C1.09291 11.739 1.17472 11.7474 1.25664 11.7461C1.33759 11.7554 1.41936 11.7554 1.50031 11.7461C1.57981 11.7324 1.65744 11.7094 1.73147 11.6773C1.80883 11.6466 1.88224 11.6068 1.95015 11.5586C2.01934 11.5152 2.08237 11.4626 2.13758 11.4024C2.19779 11.3472 2.25035 11.2842 2.29378 11.215C2.34181 11.1492 2.38168 11.0779 2.41248 11.0026C2.45516 10.9196 2.48668 10.8314 2.5062 10.7402C2.51581 10.6592 2.51581 10.5774 2.5062 10.4965Z" fill="white"/>
<path d="M2.50603 16.1195C2.51529 16.0385 2.51529 15.9568 2.50603 15.8758C2.48444 15.7932 2.45297 15.7135 2.41232 15.6384C2.37877 15.5644 2.33906 15.4933 2.29361 15.426C2.25019 15.3568 2.19763 15.2938 2.13741 15.2385C1.65005 14.7541 0.862901 14.7541 0.375533 15.2385C0.31532 15.2938 0.26276 15.3568 0.219338 15.426C0.173885 15.4933 0.134172 15.5644 0.10063 15.6384C0.0682191 15.7145 0.0451413 15.7942 0.0319037 15.8758C0.0142928 15.9558 0.00593632 16.0376 0.00691253 16.1195C0.00831829 16.4503 0.140889 16.7671 0.375533 17.0004C0.430748 17.0606 0.493773 17.1132 0.562967 17.1566C0.628764 17.2046 0.700067 17.2444 0.775392 17.2753C0.851577 17.3074 0.931275 17.3305 1.01281 17.3441C1.09274 17.362 1.17455 17.3704 1.25647 17.369C1.33742 17.3784 1.41919 17.3784 1.50014 17.369C1.57964 17.3554 1.65727 17.3323 1.73131 17.3003C1.80866 17.2696 1.88207 17.2298 1.94998 17.1816C2.01917 17.1382 2.0822 17.0856 2.13741 17.0254C2.19763 16.9702 2.25019 16.9072 2.29361 16.838C2.34168 16.7723 2.38155 16.7009 2.41232 16.6256C2.45496 16.5426 2.48647 16.4544 2.50603 16.3631C2.51564 16.2822 2.51564 16.2004 2.50603 16.1195Z" fill="white"/>
<path d="M18.7503 9.24695H5.00518C4.31507 9.24695 3.75562 9.8064 3.75562 10.4965C3.75562 11.1866 4.31507 11.7461 5.00518 11.7461H18.7503C19.4405 11.7461 19.9999 11.1866 19.9999 10.4965C19.9999 9.8064 19.4405 9.24695 18.7503 9.24695Z" fill="white"/>
<path d="M13.1273 14.8699H5.00518C4.31507 14.8699 3.75562 15.4294 3.75562 16.1195C3.75562 16.8096 4.31507 17.3691 5.00518 17.3691H13.1273C13.8174 17.3691 14.3769 16.8096 14.3769 16.1195C14.3769 15.4294 13.8174 14.8699 13.1273 14.8699Z" fill="white"/>
</g>
<defs>
<clipPath id="clip0_462_3629">
<rect width="20" height="20" fill="white" transform="translate(0 0.5)"/>
</clipPath>
</defs>
</svg>
